<svg width="32" height="32" viewBox="0 0 32 32" fill="none" xmlns="http://www.w3.org/2000/svg">
<g clip-path="url(#clip0_87_14)">
<path d="M15.4444 0.522976C23.9919 0.196456 31.1852 6.86238 31.5089 15.41C31.8327 23.9577 25.1646 31.1486 16.6168 31.4697C8.07286 31.7908 0.885755 25.1261 0.562092 16.5824C0.23843 8.03857 6.90071 0.849349 15.4444 0.522976Z" fill="#FFD311"/>
<path d="M8.64263 6.69428C8.89376 6.67158 9.34473 6.68071 9.5989 6.6886C10.9658 6.73103 12.5191 7.02939 13.5944 7.93535C14.6873 8.85613 14.9892 9.92838 15.114 11.2645H11.4515C11.4052 10.8525 11.3406 10.4758 11.0337 10.1658C10.5778 9.72077 9.86237 9.64847 9.26171 9.64333C8.48521 9.63669 7.45468 9.82538 7.47198 10.8047C7.47884 11.193 7.62641 11.4969 7.96855 11.6995C8.4897 12.0081 9.12635 12.084 9.71235 12.1921C11.365 12.4658 13.2835 12.7405 14.5517 13.9445C15.3111 14.672 15.5878 15.6257 15.5939 16.6504C15.6151 20.1914 12.4601 21.157 9.53987 21.1751C6.33674 21.1639 3.37065 20.0479 3.28027 16.3106L7.0261 16.3103C7.04799 16.8198 7.13688 17.3351 7.52715 17.7062C8.07771 18.2075 8.96468 18.2282 9.65615 18.2131C10.5183 18.1942 11.6579 17.96 11.5788 16.8739C11.5551 16.549 11.4279 16.2662 11.1314 16.1003C10.6296 15.8195 10.0183 15.7331 9.45899 15.6317C7.80137 15.3786 6.07466 15.1474 4.76265 13.9949C3.9517 13.2825 3.57035 12.3392 3.50557 11.275C3.43935 10.1871 3.71904 9.13392 4.46799 8.31489C5.53441 7.14872 7.12991 6.77856 8.64263 6.69428Z" fill="black"/>
<path d="M15.2041 7.00076L25.4535 7.00024V10.1477C25.2589 10.3349 25.0761 10.5124 24.8867 10.7043C22.7994 12.8184 21.8994 15.1185 21.58 18.0502C21.4811 18.9843 21.4355 19.9232 21.4435 20.8624L21.18 20.863L17.4072 20.8629C17.4067 20.8446 17.4064 20.8265 17.4063 20.8082C17.366 17.0009 19.0285 12.8838 21.6913 10.1702L15.2041 10.1699L15.2041 7.00076Z" fill="black"/>
<path d="M24.1875 17.0039C25.503 17.0183 26.8398 17.0034 28.1578 17.0056L28.1561 20.8642C26.8525 20.845 25.4953 20.8609 24.188 20.8641L24.1875 17.0039Z" fill="#506FFE"/>
</g>
<defs>
<clipPath id="clip0_87_14">
<rect width="32" height="32" fill="white"/>
</clipPath>
</defs>
</svg>
