<svg width="1024" height="1024" viewBox="0 0 1024 1024" fill="none" xmlns="http://www.w3.org/2000/svg">
<path d="M494.235 16.7338C767.755 6.28511 997.94 219.595 1008.3 493.12C1018.66 766.645 805.28 996.755 531.75 1007.03C258.345 1017.31 28.3578 804.035 18.0006 530.635C7.64342 257.233 220.836 27.1777 494.235 16.7338Z" fill="#FFD311"/>
<path d="M276.56 214.213C284.596 213.487 299.027 213.779 307.161 214.031C350.9 215.389 400.607 224.937 435.017 253.927C469.99 283.392 479.65 317.704 483.645 360.462H366.444C364.962 347.276 362.894 335.22 353.075 325.301C338.485 311.061 315.592 308.747 296.371 308.583C271.523 308.37 238.546 314.408 239.099 345.747C239.319 358.174 244.041 367.897 254.99 374.38C271.666 384.255 292.039 386.683 310.791 390.143C363.676 398.903 425.068 407.694 465.652 446.221C489.953 469.499 498.804 500.02 499.001 532.81C499.678 646.12 398.72 677.02 305.272 677.6C202.772 677.24 107.857 641.53 104.965 521.935L224.831 521.925C225.532 538.23 228.376 554.72 240.865 566.595C258.483 582.635 286.866 583.3 308.993 582.815C336.58 582.21 373.049 574.715 370.518 539.96C369.761 529.565 365.69 520.515 356.202 515.205C340.142 506.22 320.583 503.455 302.684 500.21C249.64 492.111 194.385 484.712 152.401 447.833C126.45 425.038 114.247 394.85 112.174 360.796C110.055 325.983 119.005 292.282 142.972 266.073C177.097 228.755 228.153 216.91 276.56 214.213Z" fill="black"/>
<path d="M486.521 224.027L814.5 224.01V324.729C808.275 330.718 802.425 336.401 796.365 342.539C729.57 410.191 700.77 483.794 690.55 577.61C687.385 607.5 685.925 637.545 686.18 667.6L677.75 667.62L557.02 667.615C557.005 667.03 556.995 666.45 556.99 665.865C555.7 544.03 608.9 412.285 694.11 325.45L486.521 325.439L486.521 224.027Z" fill="black"/>
<path d="M774.01 544.125C816.105 544.585 858.885 544.11 901.06 544.18L901.005 667.655C859.29 667.04 815.86 667.55 774.025 667.65L774.01 544.125Z" fill="#506FFE"/>
</svg>
